# MagicaVoxel @ Ephtracy

# group
o 

# material
mtllib pul.mtl
usemtl palette

# normals
vn -1 0 0
vn 1 0 0
vn 0 0 1
vn 0 0 -1
vn 0 -1 0
vn 0 1 0

# texcoords
vt 0.0214844 0.5
vt 0.369141 0.5
vt 0.771484 0.5
vt 0.791016 0.5

# verts
v -0.5 0 0.5
v -0.5 0 -0.5
v -0.5 0.2 0.2
v -0.5 0.2 -0.1
v -0.5 0.2 -0.4
v -0.5 0.2 -0.5
v -0.5 0.3 0.2
v -0.5 0.3 -0.1
v -0.5 0.3 -0.4
v -0.5 0.3 -0.5
v -0.5 0.4 0.5
v -0.5 0.4 0.2
v -0.5 0.4 0.1
v -0.5 0.4 0
v -0.5 0.5 0.5
v -0.5 0.5 0.2
v -0.5 0.5 0.1
v -0.5 0.5 -0.1
v -0.5 0.5 -0.4
v -0.5 0.6 0.5
v -0.5 0.6 0.4
v -0.5 0.6 0
v -0.5 0.6 -0.1
v -0.5 0.6 -0.4
v -0.5 0.7 0.5
v -0.5 0.7 0.4
v -0.5 0.8 0.5
v -0.5 0.8 0.2
v -0.5 0.8 -0.1
v -0.5 0.8 -0.5
v -0.5 0.9 -0.1
v -0.5 0.9 -0.2
v -0.5 1 0.5
v -0.5 1 -0.1
v -0.5 1 -0.2
v -0.5 1 -0.5
v 0.5 0 0.5
v 0.5 0 -0.2
v 0.5 0 -0.5
v 0.5 0.1 0.5
v 0.5 0.1 0.2
v 0.5 0.1 -0.2
v 0.5 0.1 -0.5
v 0.5 0.3 0.5
v 0.5 0.3 0.3
v 0.5 0.3 0.2
v 0.5 0.3 -0.1
v 0.5 0.4 0.3
v 0.5 0.4 0.1
v 0.5 0.4 -0.1
v 0.5 0.4 -0.3
v 0.5 0.5 0.1
v 0.5 0.5 -0.3
v 0.5 0.6 0.3
v 0.5 0.6 -0.1
v 0.5 0.6 -0.2
v 0.5 0.6 -0.3
v 0.5 0.6 -0.4
v 0.5 0.6 -0.5
v 0.5 0.7 0.5
v 0.5 0.7 0.4
v 0.5 0.7 0.3
v 0.5 0.7 -0.1
v 0.5 0.7 -0.2
v 0.5 0.8 0.4
v 0.5 0.8 -0.1
v 0.5 0.8 -0.3
v 0.5 0.8 -0.4
v 0.5 0.9 -0.2
v 0.5 0.9 -0.3
v 0.5 1 0.5
v 0.5 1 -0.2
v 0.5 1 -0.3
v 0.5 1 -0.5
v -0.5 0 0.5
v -0.5 0.4 0.5
v -0.5 0.5 0.5
v -0.5 0.6 0.5
v -0.5 0.7 0.5
v -0.5 0.8 0.5
v -0.5 1 0.5
v -0.4 0.4 0.5
v -0.4 0.5 0.5
v -0.3 0.3 0.5
v -0.3 0.4 0.5
v -0.2 0.6 0.5
v -0.2 0.7 0.5
v 0 0.4 0.5
v 0 0.5 0.5
v 0.1 0.3 0.5
v 0.1 0.4 0.5
v 0.1 0.6 0.5
v 0.1 0.8 0.5
v 0.2 0.1 0.5
v 0.2 0.2 0.5
v 0.3 0.2 0.5
v 0.3 0.3 0.5
v 0.3 0.4 0.5
v 0.3 0.5 0.5
v 0.3 0.6 0.5
v 0.3 0.7 0.5
v 0.5 0 0.5
v 0.5 0.1 0.5
v 0.5 0.3 0.5
v 0.5 0.7 0.5
v 0.5 1 0.5
v -0.5 0 -0.5
v -0.5 0.2 -0.5
v -0.5 0.3 -0.5
v -0.5 0.8 -0.5
v -0.5 1 -0.5
v -0.4 0.6 -0.5
v -0.4 0.7 -0.5
v -0.2 0.6 -0.5
v -0.2 0.7 -0.5
v -0.1 0 -0.5
v -0.1 0.1 -0.5
v -0.1 0.2 -0.5
v -0.1 0.3 -0.5
v -0.1 0.4 -0.5
v -0.1 0.5 -0.5
v -0.1 0.8 -0.5
v 0 0.5 -0.5
v 0 0.6 -0.5
v 0.1 0 -0.5
v 0.1 0.1 -0.5
v 0.1 0.3 -0.5
v 0.1 0.4 -0.5
v 0.2 0.6 -0.5
v 0.2 0.8 -0.5
v 0.3 0.7 -0.5
v 0.3 0.8 -0.5
v 0.4 0 -0.5
v 0.4 0.1 -0.5
v 0.4 0.5 -0.5
v 0.4 0.6 -0.5
v 0.4 0.7 -0.5
v 0.5 0 -0.5
v 0.5 0.1 -0.5
v 0.5 0.6 -0.5
v 0.5 1 -0.5
v -0.5 0 0.5
v 0.5 0 0.5
v 0.4 0 -0.2
v 0.5 0 -0.2
v -0.1 0 -0.4
v 0.1 0 -0.4
v -0.5 0 -0.5
v -0.1 0 -0.5
v 0.1 0 -0.5
v 0.4 0 -0.5
v 0.5 0 -0.5
v -0.5 1 0.5
v 0.5 1 0.5
v 0.1 1 0.4
v 0.4 1 0.4
v 0.1 1 0.3
v 0.4 1 0.3
v -0.3 1 0.2
v 0 1 0.2
v -0.3 1 0
v 0 1 0
v -0.5 1 -0.1
v -0.3 1 -0.1
v -0.5 1 -0.2
v -0.3 1 -0.2
v 0.1 1 -0.2
v 0.5 1 -0.2
v 0.1 1 -0.3
v 0.5 1 -0.3
v -0.5 1 -0.5
v 0.5 1 -0.5

# faces
f 3/2/1 2/2/1 1/2/1
f 4/2/1 2/2/1 3/2/1
f 5/2/1 2/2/1 4/2/1
f 6/2/1 2/2/1 5/2/1
f 7/2/1 3/2/1 1/2/1
f 7/1/1 4/1/1 3/1/1
f 8/2/1 5/2/1 4/2/1
f 8/1/1 4/1/1 7/1/1
f 9/1/1 6/1/1 5/1/1
f 9/2/1 5/2/1 8/2/1
f 10/1/1 6/1/1 9/1/1
f 11/2/1 8/2/1 7/2/1
f 11/2/1 7/2/1 1/2/1
f 11/2/1 10/2/1 9/2/1
f 11/2/1 9/2/1 8/2/1
f 12/2/1 10/2/1 11/2/1
f 13/2/1 10/2/1 12/2/1
f 14/2/1 10/2/1 13/2/1
f 15/1/1 12/1/1 11/1/1
f 16/2/1 13/2/1 12/2/1
f 16/1/1 12/1/1 15/1/1
f 17/3/1 14/3/1 13/3/1
f 17/2/1 13/2/1 16/2/1
f 18/2/1 10/2/1 14/2/1
f 19/2/1 10/2/1 18/2/1
f 20/2/1 16/2/1 15/2/1
f 21/2/1 16/2/1 20/2/1
f 22/3/1 14/3/1 17/3/1
f 22/3/1 17/3/1 16/3/1
f 22/2/1 18/2/1 14/2/1
f 23/1/1 19/1/1 18/1/1
f 23/2/1 18/2/1 22/2/1
f 24/2/1 10/2/1 19/2/1
f 24/1/1 19/1/1 23/1/1
f 25/1/1 21/1/1 20/1/1
f 26/2/1 16/2/1 21/2/1
f 26/1/1 21/1/1 25/1/1
f 27/2/1 26/2/1 25/2/1
f 28/3/1 23/3/1 22/3/1
f 28/2/1 26/2/1 27/2/1
f 28/3/1 22/3/1 16/3/1
f 28/2/1 16/2/1 26/2/1
f 29/2/1 24/2/1 23/2/1
f 29/3/1 23/3/1 28/3/1
f 30/2/1 10/2/1 24/2/1
f 30/2/1 24/2/1 29/2/1
f 31/3/1 29/3/1 28/3/1
f 31/3/1 28/3/1 27/3/1
f 31/3/1 30/3/1 29/3/1
f 32/3/1 30/3/1 31/3/1
f 33/3/1 31/3/1 27/3/1
f 34/4/1 32/4/1 31/4/1
f 34/3/1 31/3/1 33/3/1
f 35/3/1 30/3/1 32/3/1
f 35/4/1 32/4/1 34/4/1
f 36/3/1 30/3/1 35/3/1
f 37/2/2 38/2/2 40/2/2
f 40/2/2 38/2/2 41/2/2
f 38/1/2 39/1/2 42/1/2
f 41/2/2 38/2/2 42/2/2
f 42/1/2 39/1/2 43/1/2
f 40/1/2 41/1/2 44/1/2
f 44/1/2 41/1/2 45/1/2
f 41/2/2 42/2/2 46/2/2
f 45/1/2 41/1/2 46/1/2
f 42/2/2 43/2/2 46/2/2
f 46/2/2 43/2/2 47/2/2
f 44/2/2 45/2/2 48/2/2
f 45/1/2 46/1/2 48/1/2
f 46/1/2 47/1/2 48/1/2
f 48/1/2 47/1/2 49/1/2
f 47/2/2 43/2/2 50/2/2
f 49/1/2 47/1/2 50/1/2
f 50/2/2 43/2/2 51/2/2
f 48/2/2 49/2/2 52/2/2
f 49/1/2 50/1/2 52/1/2
f 50/1/2 51/1/2 52/1/2
f 51/2/2 43/2/2 53/2/2
f 52/1/2 51/1/2 53/1/2
f 48/2/2 52/2/2 54/2/2
f 44/2/2 48/2/2 54/2/2
f 52/2/2 53/2/2 54/2/2
f 54/2/2 53/2/2 55/2/2
f 55/2/2 53/2/2 56/2/2
f 53/2/2 43/2/2 57/2/2
f 56/2/2 53/2/2 57/2/2
f 57/2/2 43/2/2 58/2/2
f 58/2/2 43/2/2 59/2/2
f 44/2/2 54/2/2 60/2/2
f 60/2/2 54/2/2 61/2/2
f 54/1/2 55/1/2 62/1/2
f 61/2/2 54/2/2 62/2/2
f 55/2/2 56/2/2 63/2/2
f 62/1/2 55/1/2 63/1/2
f 56/3/2 57/3/2 64/3/2
f 63/2/2 56/2/2 64/2/2
f 61/2/2 62/2/2 65/2/2
f 60/3/2 61/3/2 65/3/2
f 62/2/2 63/2/2 65/2/2
f 63/3/2 64/3/2 66/3/2
f 65/2/2 63/2/2 66/2/2
f 64/3/2 57/3/2 67/3/2
f 66/3/2 64/3/2 67/3/2
f 57/2/2 58/2/2 67/2/2
f 58/3/2 59/3/2 68/3/2
f 67/2/2 58/2/2 68/2/2
f 65/3/2 66/3/2 69/3/2
f 66/3/2 67/3/2 69/3/2
f 67/3/2 68/3/2 69/3/2
f 69/3/2 68/3/2 70/3/2
f 60/3/2 65/3/2 71/3/2
f 65/3/2 69/3/2 71/3/2
f 69/4/2 70/4/2 72/4/2
f 71/3/2 69/3/2 72/3/2
f 70/3/2 68/3/2 73/3/2
f 72/4/2 70/4/2 73/4/2
f 68/3/2 59/3/2 74/3/2
f 73/3/2 68/3/2 74/3/2
f 82/2/3 76/2/3 75/2/3
f 82/1/3 77/1/3 76/1/3
f 83/2/3 78/2/3 77/2/3
f 83/1/3 77/1/3 82/1/3
f 84/2/3 82/2/3 75/2/3
f 84/2/3 83/2/3 82/2/3
f 85/2/3 83/2/3 84/2/3
f 86/2/3 78/2/3 83/2/3
f 86/2/3 83/2/3 85/2/3
f 86/1/3 79/1/3 78/1/3
f 87/2/3 80/2/3 79/2/3
f 87/1/3 79/1/3 86/1/3
f 88/2/3 86/2/3 85/2/3
f 88/1/3 85/1/3 84/1/3
f 88/2/3 87/2/3 86/2/3
f 89/2/3 87/2/3 88/2/3
f 90/2/3 84/2/3 75/2/3
f 90/1/3 88/1/3 84/1/3
f 90/1/3 89/1/3 88/1/3
f 91/1/3 89/1/3 90/1/3
f 92/2/3 87/2/3 89/2/3
f 93/3/3 81/3/3 80/3/3
f 93/2/3 87/2/3 92/2/3
f 93/2/3 80/2/3 87/2/3
f 94/2/3 91/2/3 90/2/3
f 94/2/3 90/2/3 75/2/3
f 95/2/3 91/2/3 94/2/3
f 96/1/3 95/1/3 94/1/3
f 96/2/3 91/2/3 95/2/3
f 97/2/3 91/2/3 96/2/3
f 98/1/3 89/1/3 91/1/3
f 98/2/3 91/2/3 97/2/3
f 99/2/3 92/2/3 89/2/3
f 99/1/3 89/1/3 98/1/3
f 100/3/3 93/3/3 92/3/3
f 100/2/3 92/2/3 99/2/3
f 101/3/3 93/3/3 100/3/3
f 102/2/3 94/2/3 75/2/3
f 103/1/3 97/1/3 96/1/3
f 103/2/3 94/2/3 102/2/3
f 103/1/3 96/1/3 94/1/3
f 104/2/3 98/2/3 97/2/3
f 104/1/3 97/1/3 103/1/3
f 104/2/3 99/2/3 98/2/3
f 104/2/3 100/2/3 99/2/3
f 104/2/3 101/2/3 100/2/3
f 105/3/3 93/3/3 101/3/3
f 105/2/3 101/2/3 104/2/3
f 106/3/3 81/3/3 93/3/3
f 106/3/3 93/3/3 105/3/3
f 109/2/4 110/2/4 112/2/4
f 112/2/4 110/2/4 113/2/4
f 109/2/4 112/2/4 114/2/4
f 112/1/4 113/1/4 114/1/4
f 113/2/4 110/2/4 115/2/4
f 114/1/4 113/1/4 115/1/4
f 107/2/4 108/2/4 116/2/4
f 116/2/4 108/2/4 117/2/4
f 108/1/4 109/1/4 118/1/4
f 117/2/4 108/2/4 118/2/4
f 109/2/4 114/2/4 119/2/4
f 118/1/4 109/1/4 119/1/4
f 114/2/4 115/2/4 119/2/4
f 119/2/4 115/2/4 120/2/4
f 120/2/4 115/2/4 121/2/4
f 115/2/4 110/2/4 122/2/4
f 121/2/4 115/2/4 122/2/4
f 110/3/4 111/3/4 122/3/4
f 120/2/4 121/2/4 123/2/4
f 121/3/4 122/3/4 123/3/4
f 123/3/4 122/3/4 124/3/4
f 116/1/4 117/1/4 125/1/4
f 117/2/4 118/2/4 126/2/4
f 125/1/4 117/1/4 126/1/4
f 118/2/4 119/2/4 126/2/4
f 119/1/4 120/1/4 127/1/4
f 126/2/4 119/2/4 127/2/4
f 120/2/4 123/2/4 128/2/4
f 127/1/4 120/1/4 128/1/4
f 124/3/4 122/3/4 129/3/4
f 123/1/4 124/1/4 129/1/4
f 122/3/4 111/3/4 130/3/4
f 129/3/4 122/3/4 130/3/4
f 129/2/4 130/2/4 131/2/4
f 130/3/4 111/3/4 132/3/4
f 131/2/4 130/2/4 132/2/4
f 125/2/4 126/2/4 133/2/4
f 127/2/4 128/2/4 133/2/4
f 126/2/4 127/2/4 133/2/4
f 133/2/4 128/2/4 134/2/4
f 123/1/4 129/1/4 135/1/4
f 134/2/4 128/2/4 135/2/4
f 128/2/4 123/2/4 135/2/4
f 129/2/4 131/2/4 136/2/4
f 135/1/4 129/1/4 136/1/4
f 131/3/4 132/3/4 137/3/4
f 136/2/4 131/2/4 137/2/4
f 133/1/4 134/1/4 138/1/4
f 135/2/4 136/2/4 139/2/4
f 138/1/4 134/1/4 139/1/4
f 134/2/4 135/2/4 139/2/4
f 136/3/4 137/3/4 140/3/4
f 139/2/4 136/2/4 140/2/4
f 137/3/4 132/3/4 141/3/4
f 140/3/4 137/3/4 141/3/4
f 132/3/4 111/3/4 141/3/4
f 144/2/5 143/2/5 142/2/5
f 145/2/5 143/2/5 144/2/5
f 146/2/5 144/2/5 142/2/5
f 147/2/5 144/2/5 146/2/5
f 148/2/5 146/2/5 142/2/5
f 149/1/5 147/1/5 146/1/5
f 149/2/5 146/2/5 148/2/5
f 150/2/5 144/2/5 147/2/5
f 150/1/5 147/1/5 149/1/5
f 151/1/5 145/1/5 144/1/5
f 151/2/5 144/2/5 150/2/5
f 152/1/5 145/1/5 151/1/5
f 153/3/6 154/3/6 155/3/6
f 155/3/6 154/3/6 156/3/6
f 153/3/6 155/3/6 157/3/6
f 155/4/6 156/4/6 157/4/6
f 156/3/6 154/3/6 158/3/6
f 157/4/6 156/4/6 158/4/6
f 153/3/6 157/3/6 159/3/6
f 157/3/6 158/3/6 159/3/6
f 159/3/6 158/3/6 160/3/6
f 153/3/6 159/3/6 161/3/6
f 159/4/6 160/4/6 161/4/6
f 160/3/6 158/3/6 162/3/6
f 161/4/6 160/4/6 162/4/6
f 153/3/6 161/3/6 163/3/6
f 161/3/6 162/3/6 163/3/6
f 163/3/6 162/3/6 164/3/6
f 163/4/6 164/4/6 165/4/6
f 164/3/6 162/3/6 166/3/6
f 165/4/6 164/4/6 166/4/6
f 162/3/6 158/3/6 167/3/6
f 166/3/6 162/3/6 167/3/6
f 158/3/6 154/3/6 168/3/6
f 167/3/6 158/3/6 168/3/6
f 166/3/6 167/3/6 169/3/6
f 165/3/6 166/3/6 169/3/6
f 167/4/6 168/4/6 169/4/6
f 169/4/6 168/4/6 170/4/6
f 165/3/6 169/3/6 171/3/6
f 169/3/6 170/3/6 171/3/6
f 171/3/6 170/3/6 172/3/6
